<svg width="470" height="409" viewBox="0 0 470 409" fill="none" xmlns="http://www.w3.org/2000/svg">
<path d="M104.149 147.074C3.31751 122.774 -27.3705 158.138 25.6028 205.103C278.413 429.244 425.277 448.829 398.973 141.996C377.93 -103.47 264.896 21.9471 223.248 127.489C199.136 171.011 184.523 169.705 104.149 147.074Z" fill="#1D8BE3"/>
<path d="M73.7149 74.651C48.8249 85.1329 20.8948 116.982 45.5949 160.119C91.575 221.196 83.0249 241.555 83.0249 250.626C56.4249 339.52 58.3976 371.772 68.0149 385.278C99.4789 429.463 235.405 401.941 299.435 382.657C445.546 351.816 530.666 94.6069 418.376 127.464C401.504 135.527 357.639 146.008 337.816 150.242C246.698 151.359 159.651 54.9708 73.7149 74.651Z" fill="#FCAE32"/>
</svg>
